<svg width="35" height="35" viewBox="0 0 35 35" fill="none" xmlns="http://www.w3.org/2000/svg">
<path d="M32.6523 9.1439C31.0874 6.46265 28.9647 4.3399 26.2837 2.77517C23.6023 1.21037 20.675 0.428162 17.4997 0.428162C14.3249 0.428162 11.3966 1.21061 8.71574 2.77517C6.03449 4.33982 3.9119 6.46265 2.34701 9.1439C0.782364 11.8251 0 14.7529 0 17.9274C0 21.7407 1.11253 25.1696 3.33816 28.2152C5.56354 31.261 8.43841 33.3686 11.9625 34.5382C12.3727 34.6143 12.6764 34.5608 12.8739 34.3789C13.0714 34.1968 13.17 33.9687 13.17 33.6956C13.17 33.65 13.1661 33.24 13.1585 32.4652C13.1507 31.6903 13.147 31.0143 13.147 30.4376L12.6229 30.5282C12.2888 30.5894 11.8672 30.6154 11.3583 30.608C10.8496 30.6009 10.3215 30.5476 9.77472 30.4485C9.22771 30.3503 8.71894 30.1224 8.24798 29.7654C7.77727 29.4084 7.44311 28.9411 7.24559 28.3643L7.01773 27.84C6.86586 27.4909 6.62675 27.1031 6.30009 26.678C5.97344 26.2526 5.64311 25.9641 5.30895 25.8123L5.14941 25.698C5.04311 25.6221 4.94446 25.5306 4.85324 25.4244C4.7621 25.3182 4.69387 25.2119 4.64829 25.1054C4.60264 24.9988 4.64047 24.9115 4.76218 24.8429C4.88389 24.7743 5.10384 24.7411 5.423 24.7411L5.87854 24.8091C6.18238 24.87 6.5582 25.0519 7.00648 25.3559C7.45453 25.6597 7.82284 26.0546 8.11151 26.5404C8.46107 27.1634 8.88222 27.6381 9.37616 27.9648C9.8697 28.2914 10.3673 28.4545 10.8685 28.4545C11.3697 28.4545 11.8026 28.4165 12.1673 28.3409C12.5316 28.2649 12.8735 28.1507 13.1926 27.9989C13.3293 26.9807 13.7015 26.1985 14.309 25.6518C13.4432 25.5608 12.6648 25.4237 11.9735 25.2415C11.2825 25.0591 10.5684 24.763 9.83179 24.3525C9.09475 23.9425 8.48334 23.4334 7.99739 22.8261C7.51135 22.2184 7.11247 21.4206 6.80129 20.4335C6.48996 19.4459 6.33425 18.3067 6.33425 17.0156C6.33425 15.1772 6.93441 13.6128 8.1345 12.3215C7.57232 10.9394 7.6254 9.38995 8.29387 7.67343C8.73442 7.53656 9.38773 7.63927 10.2535 7.98093C11.1194 8.32275 11.7534 8.61557 12.1561 8.85835C12.5588 9.10104 12.8815 9.30671 13.1246 9.47351C14.5376 9.0787 15.9958 8.88125 17.4996 8.88125C19.0033 8.88125 20.4618 9.0787 21.8749 9.47351L22.7408 8.9269C23.3329 8.56218 24.0321 8.22794 24.8367 7.92411C25.6418 7.62044 26.2574 7.5368 26.683 7.67367C27.3663 9.39027 27.4272 10.9396 26.8649 12.3217C28.0649 13.613 28.6653 15.1778 28.6653 17.0158C28.6653 18.307 28.509 19.4497 28.1981 20.4449C27.8869 21.4402 27.4846 22.2371 26.991 22.8375C26.4969 23.4377 25.8816 23.9428 25.145 24.3527C24.4082 24.7629 23.6939 25.059 23.0029 25.2415C22.3116 25.4239 21.5333 25.561 20.6675 25.6522C21.4571 26.3355 21.852 27.4141 21.852 28.8875L21.852 33.695C21.852 33.9681 21.947 34.1961 22.1371 34.3783C22.3269 34.5602 22.6268 34.6137 23.037 34.5375C26.5616 33.3681 29.4365 31.2604 31.6618 28.2146C33.8868 25.169 34.9998 21.74 34.9998 17.9268C34.999 14.7527 34.2162 11.8251 32.6523 9.1439Z" fill="white"/>
</svg>
