<svg width="35" height="36" viewBox="0 0 35 36" fill="none" xmlns="http://www.w3.org/2000/svg">
<path d="M22.5592 24.798L25.3482 11.6496C25.4621 11.093 25.3956 10.6946 25.149 10.4542C24.9023 10.2139 24.5766 10.1696 24.1719 10.3214L7.77902 16.6395C7.4122 16.7786 7.16239 16.9368 7.02958 17.1138C6.89676 17.2909 6.88095 17.4585 6.98214 17.6166C7.08333 17.7747 7.28571 17.8981 7.58929 17.9866L11.7824 19.2958L21.5156 13.1674C21.7812 12.9903 21.9836 12.9524 22.1228 13.0536C22.2113 13.1168 22.186 13.2117 22.0469 13.3382L14.173 20.4531L13.8694 24.779C14.1603 24.779 14.4449 24.6399 14.7232 24.3616L16.7723 22.3884L21.0223 25.519C21.8318 25.9743 22.3441 25.734 22.5592 24.798ZM34 17C34 19.3021 33.551 21.503 32.6529 23.6027C31.7548 25.7024 30.5469 27.5112 29.029 29.029C27.5112 30.5469 25.7024 31.7548 23.6027 32.6529C21.503 33.551 19.3021 34 17 34C14.6979 34 12.497 33.551 10.3973 32.6529C8.29762 31.7548 6.48884 30.5469 4.97098 29.029C3.45312 27.5112 2.24516 25.7024 1.3471 23.6027C0.449033 21.503 0 19.3021 0 17C0 14.6979 0.449033 12.497 1.3471 10.3973C2.24516 8.29762 3.45312 6.48884 4.97098 4.97098C6.48884 3.45312 8.29762 2.24516 10.3973 1.3471C12.497 0.449033 14.6979 0 17 0C19.3021 0 21.503 0.449033 23.6027 1.3471C25.7024 2.24516 27.5112 3.45312 29.029 4.97098C30.5469 6.48884 31.7548 8.29762 32.6529 10.3973C33.551 12.497 34 14.6979 34 17Z" fill="white"/>
</svg>
