<svg width="450" height="448" viewBox="0 0 450 448" fill="none" xmlns="http://www.w3.org/2000/svg">
<path d="M448.971 0.180001C427.251 21.391 406.081 43.18 384.451 64.481C383.401 65.711 382.191 64.321 381.361 63.631C356.85 39.651 326.781 21.35 294.14 10.791C256.54 -1.369 215.691 -3.279 177.111 5.201C108.441 19.871 48.3 69.26 20.671 133.81C20.702 133.824 20.733 133.835 20.764 133.849C18.464 138.386 17.159 143.515 17.159 148.949C17.159 167.424 32.136 182.4 50.61 182.4C66.441 182.4 79.694 171.398 83.165 156.627C102.922 114.648 141.997 82.182 187.132 71.1C239.332 57.93 298.502 72.43 336.532 111.141C314.502 132.971 292.141 154.481 270.202 176.401C329.722 176.081 389.262 176.26 448.792 176.311C449.291 117.611 448.931 58.891 448.971 0.180001Z" fill="white"/>
<path d="M400.609 265.5C385.989 265.5 373.568 274.883 369.018 287.953C369.009 287.949 368.999 287.945 368.991 287.941C349.881 330.531 311.421 364.16 266.151 376.121C213.352 390.432 152.701 376.42 113.972 337.07C135.892 315.31 158.341 294.06 180.161 272.201C120.461 272.25 60.751 272.23 1.05098 272.211C0.910985 330.811 0.891986 389.4 1.06199 448C22.982 426.09 44.812 404.09 66.852 382.301C80.961 396.09 96.612 408.371 113.772 418.17C168.511 450.141 237.171 456.772 297.071 436.061C354.548 416.764 403.144 372.883 428.283 317.743C431.928 312.386 434.059 305.919 434.059 298.95C434.06 280.477 419.083 265.5 400.609 265.5Z" fill="white"/>
</svg>
