<svg width="41" height="46" viewBox="0 0 41 46" fill="none" xmlns="http://www.w3.org/2000/svg">
<g clip-path="url(#clip0)">
<path d="M5.16086 19.2549C6.42843 19.2549 7.57341 18.3889 8.06372 17.0585C10.0882 11.5703 14.8484 7.70257 20.398 7.70257C23.4566 7.70257 26.2607 8.89542 28.5088 10.8739L26.7467 11.1843C26.1448 11.2904 25.6766 11.8338 25.5951 12.5205C25.5133 13.2068 25.8385 13.8727 26.3935 14.1565L36.0837 19.1168C36.5085 19.3339 37.0005 19.2922 37.3921 19.0059C37.7829 18.7192 38.0203 18.2271 38.0229 17.6977L38.0732 5.54881C38.0766 4.85768 37.6806 4.24648 37.1002 4.04501C36.5187 3.84355 35.8906 4.09925 35.5542 4.67454L34.2186 6.9585C30.6576 2.96993 25.7781 0.504303 20.398 0.504303C12.2402 0.504303 5.22641 6.17272 2.23502 14.2292C1.81956 15.3459 1.92427 16.6246 2.5125 17.6349C3.10073 18.6455 4.09503 19.2549 5.16086 19.2549Z" fill="white"/>
<path d="M38.2835 28.2363C37.6952 27.2256 36.7008 26.6163 35.6351 26.6163C34.3675 26.6163 33.2225 27.4823 32.7322 28.8127C30.7077 34.3009 25.9474 38.1686 20.398 38.1686C17.3393 38.1686 14.5351 36.9758 12.2869 34.9973L14.0491 34.6871C14.6509 34.581 15.1191 34.0375 15.2009 33.3507C15.2825 32.6645 14.9575 31.9985 14.4024 31.7147L4.71224 26.7544C4.2874 26.5374 3.79539 26.579 3.4038 26.8653C3.01303 27.152 2.77552 27.6441 2.77301 28.1734L2.72268 40.3223C2.71928 41.0134 3.11515 41.6246 3.69569 41.8261C4.27712 42.0275 4.90533 41.7718 5.24164 41.1964L6.57727 38.9124C10.1382 42.9012 15.0178 45.3668 20.3979 45.3668C28.5558 45.3668 35.5694 39.6985 38.5607 31.642C38.9764 30.5253 38.8717 29.2467 38.2835 28.2363Z" fill="white"/>
</g>
<defs>
<clipPath id="clip0">
<rect width="39.428" height="44.8625" fill="white" transform="translate(0.68396 0.504303)"/>
</clipPath>
</defs>
</svg>
