<svg width="79" height="91" viewBox="0 0 79 91" fill="none" xmlns="http://www.w3.org/2000/svg">
<g clip-path="url(#clip0)">
<path d="M50.381 53.3137V12.9655C50.381 6.09489 45.4672 0.50531 39.4276 0.50531C33.389 0.50531 28.4762 6.09489 28.4762 12.9655V53.3134C23.9899 57.202 21.3477 63.2079 21.3477 69.6579C21.3477 81.0016 29.458 90.2302 39.4276 90.2302C49.3979 90.2302 57.5089 81.0016 57.5089 69.6579C57.5089 63.2087 54.8667 57.2027 50.381 53.3137ZM39.4276 84.8508C32.0652 84.8508 26.0754 78.0354 26.0754 69.6579C26.0754 64.5316 28.341 59.7823 32.1358 56.9534C32.8024 56.4564 33.2043 55.6104 33.2043 54.7038V12.9655C33.2043 9.06111 35.9962 5.88474 39.428 5.88474C42.861 5.88474 45.6535 9.06111 45.6535 12.9655V54.7038C45.6535 55.6107 46.0551 56.4564 46.722 56.9534C50.5162 59.7827 52.7817 64.532 52.7817 69.6579C52.7811 78.0354 46.7907 84.8508 39.4276 84.8508Z" fill="white"/>
<path d="M41.7923 61.1286V25.5821C41.7923 24.0966 40.7342 22.8923 39.4284 22.8923C38.1226 22.8923 37.0645 24.0966 37.0645 25.5821V61.1286C33.8798 62.2701 31.5708 65.6552 31.5708 69.6579C31.5708 74.5951 35.0883 78.5988 39.4284 78.5988C43.7694 78.5988 47.2866 74.5951 47.2866 69.6579C47.2863 65.6549 44.9772 62.2694 41.7923 61.1286Z" fill="white"/>
</g>
<defs>
<clipPath id="clip0">
<rect width="78.856" height="89.7249" fill="white" transform="translate(0 0.50531)"/>
</clipPath>
</defs>
</svg>
