<svg width="206" height="206" viewBox="0 0 206 206" fill="none" xmlns="http://www.w3.org/2000/svg">
<path fill-rule="evenodd" clip-rule="evenodd" d="M49.4399 103C49.4399 132.58 73.4196 156.56 103 156.56C132.58 156.56 156.56 132.58 156.56 103C156.56 73.4196 132.58 49.44 103 49.44C73.4196 49.44 49.4399 73.4196 49.4399 103ZM140.08 103C140.08 123.479 123.479 140.08 103 140.08C82.5212 140.08 65.9199 123.479 65.9199 103C65.9199 82.5213 82.5212 65.92 103 65.92C123.479 65.92 140.08 82.5213 140.08 103Z" fill="white"/>
<path fill-rule="evenodd" clip-rule="evenodd" d="M102.76 0C98.3417 0 94.76 3.58172 94.76 8V24.96C94.76 29.3783 98.3417 32.96 102.76 32.96H103.24C107.658 32.96 111.24 29.3783 111.24 24.96V8C111.24 3.58172 107.658 0 103.24 0H102.76ZM175.662 29.9984C172.538 26.8742 167.473 26.8742 164.349 29.9984L152.356 41.9909C149.232 45.1151 149.232 50.1804 152.356 53.3046L152.695 53.644C155.82 56.7682 160.885 56.7682 164.009 53.6441L176.002 41.6515C179.126 38.5273 179.126 33.462 176.002 30.3378L175.662 29.9984ZM198 94.76C202.418 94.76 206 98.3417 206 102.76V103.24C206 107.658 202.418 111.24 198 111.24H181.04C176.622 111.24 173.04 107.658 173.04 103.24V102.76C173.04 98.3417 176.622 94.76 181.04 94.76H198ZM176.002 175.662C179.126 172.538 179.126 167.473 176.002 164.348L164.009 152.356C160.885 149.232 155.82 149.232 152.695 152.356L152.356 152.695C149.232 155.82 149.232 160.885 152.356 164.009L164.349 176.002C167.473 179.126 172.538 179.126 175.662 176.002L176.002 175.662ZM111.24 198C111.24 202.418 107.658 206 103.24 206H102.76C98.3417 206 94.76 202.418 94.76 198V181.04C94.76 176.622 98.3417 173.04 102.76 173.04H103.24C107.658 173.04 111.24 176.622 111.24 181.04V198ZM30.3377 176.002C33.4619 179.126 38.5272 179.126 41.6514 176.002L53.6439 164.009C56.7681 160.885 56.7681 155.82 53.6439 152.695L53.3045 152.356C50.1803 149.232 45.115 149.232 41.9908 152.356L29.9983 164.348C26.8741 167.473 26.8741 172.538 29.9983 175.662L30.3377 176.002ZM8 111.24C3.58172 111.24 0 107.658 0 103.24V102.76C0 98.3417 3.58172 94.76 8 94.76H24.96C29.3783 94.76 32.96 98.3417 32.96 102.76V103.24C32.96 107.658 29.3783 111.24 24.96 111.24H8ZM29.9983 30.3378C26.8741 33.462 26.8741 38.5273 29.9983 41.6515L41.9908 53.6441C45.115 56.7683 50.1803 56.7683 53.3045 53.6441L53.6439 53.3047C56.7681 50.1805 56.7681 45.1151 53.6439 41.9909L41.6514 29.9984C38.5272 26.8742 33.4619 26.8742 30.3377 29.9984L29.9983 30.3378Z" fill="white"/>
</svg>
